<?xml version="1.0" encoding="UTF-8" standalone="no"?>
<!-- Created with Inkscape (http://www.inkscape.org/) -->

<svg
   version="1.1"
   id="svg824"
   width="250"
   height="250"
   viewBox="0 0 250 250"
   sodipodi:docname="icon_console.svg"
   inkscape:version="1.4.2 (f4327f4, 2025-05-13)"
   inkscape:export-filename="icon.png"
   inkscape:export-xdpi="96"
   inkscape:export-ydpi="96"
   xmlns:inkscape="http://www.inkscape.org/namespaces/inkscape"
   xmlns:sodipodi="http://sodipodi.sourceforge.net/DTD/sodipodi-0.dtd"
   xmlns="http://www.w3.org/2000/svg"
   xmlns:svg="http://www.w3.org/2000/svg">
  <defs
     id="defs828">
    <linearGradient
       id="paint0_linear"
       x1="36.446201"
       y1="47.825699"
       x2="11.8217"
       y2="5.1747999"
       gradientUnits="userSpaceOnUse"
       gradientTransform="matrix(2.255695,0,0,2.255695,126.41988,142.06057)">
      <stop
         stop-color="#333333"
         id="stop22"
         offset="0"
         style="stop-color:#821313;stop-opacity:1;" />
      <stop
         offset="1"
         stop-color="#4D4D4D"
         id="stop23"
         style="stop-color:#f49292;stop-opacity:1;" />
    </linearGradient>
    <filter
       id="filter0_dd"
       x="3.0249901"
       y="15"
       width="18.950001"
       height="25.875"
       filterUnits="userSpaceOnUse"
       color-interpolation-filters="sRGB">
      <feFlood
         flood-opacity="0"
         result="BackgroundImageFix"
         id="feFlood10" />
      <feColorMatrix
         in="SourceAlpha"
         type="matrix"
         values="0 0 0 0 0 0 0 0 0 0 0 0 0 0 0 0 0 0 127 0"
         id="feColorMatrix10" />
      <feOffset
         dy="0.5"
         id="feOffset10" />
      <feGaussianBlur
         stdDeviation="0.5"
         id="feGaussianBlur10" />
      <feColorMatrix
         type="matrix"
         values="0 0 0 0 0 0 0 0 0 0 0 0 0 0 0 0 0 0 0.1 0"
         id="feColorMatrix11" />
      <feBlend
         mode="normal"
         in2="BackgroundImageFix"
         result="effect1_dropShadow"
         id="feBlend11" />
      <feColorMatrix
         in="SourceAlpha"
         type="matrix"
         values="0 0 0 0 0 0 0 0 0 0 0 0 0 0 0 0 0 0 127 0"
         id="feColorMatrix12" />
      <feOffset
         dy="1"
         id="feOffset12" />
      <feGaussianBlur
         stdDeviation="1.5"
         id="feGaussianBlur12" />
      <feColorMatrix
         type="matrix"
         values="0 0 0 0 0 0 0 0 0 0 0 0 0 0 0 0 0 0 0.2 0"
         id="feColorMatrix13" />
      <feBlend
         mode="normal"
         in2="effect1_dropShadow"
         result="effect2_dropShadow"
         id="feBlend13" />
      <feBlend
         mode="normal"
         in="SourceGraphic"
         in2="effect2_dropShadow"
         result="shape"
         id="feBlend14" />
    </filter>
    <linearGradient
       id="paint1_linear"
       x1="14.5276"
       y1="33.995899"
       x2="10.4841"
       y2="26.992399"
       gradientUnits="userSpaceOnUse">
      <stop
         stop-color="#999999"
         id="stop24" />
      <stop
         offset="1"
         stop-color="#B3B3B3"
         id="stop25" />
    </linearGradient>
    <mask
       id="mask0"
       mask-type="alpha"
       maskUnits="userSpaceOnUse"
       x="6"
       y="24"
       width="13"
       height="13">
      <path
         d="m 15.2,24.3 -8.80001,8.8 c -0.5,0.5 -0.5,1.2 0,1.6 l 1.8,1.8 C 8.69999,37 9.4,37 9.8,36.5 l 8.8,-8.8 c 0.5,-0.5 0.5,-1.2 0,-1.6 l -1.8,-1.8 c -0.4,-0.4 -1.2,-0.4 -1.6,0 z"
         fill="url(#paint2_linear)"
         id="path6"
         style="fill:url(#paint1_linear)" />
    </mask>
    <filter
       id="filter1_dd"
       x="3.0249901"
       y="15"
       width="18.950001"
       height="18.875"
       filterUnits="userSpaceOnUse"
       color-interpolation-filters="sRGB">
      <feFlood
         flood-opacity="0"
         result="BackgroundImageFix"
         id="feFlood14" />
      <feColorMatrix
         in="SourceAlpha"
         type="matrix"
         values="0 0 0 0 0 0 0 0 0 0 0 0 0 0 0 0 0 0 127 0"
         id="feColorMatrix14" />
      <feOffset
         dy="0.5"
         id="feOffset14" />
      <feGaussianBlur
         stdDeviation="0.5"
         id="feGaussianBlur14" />
      <feColorMatrix
         type="matrix"
         values="0 0 0 0 0 0 0 0 0 0 0 0 0 0 0 0 0 0 0.1 0"
         id="feColorMatrix15" />
      <feBlend
         mode="normal"
         in2="BackgroundImageFix"
         result="effect1_dropShadow"
         id="feBlend15" />
      <feColorMatrix
         in="SourceAlpha"
         type="matrix"
         values="0 0 0 0 0 0 0 0 0 0 0 0 0 0 0 0 0 0 127 0"
         id="feColorMatrix16" />
      <feOffset
         dy="1"
         id="feOffset16" />
      <feGaussianBlur
         stdDeviation="1.5"
         id="feGaussianBlur16" />
      <feColorMatrix
         type="matrix"
         values="0 0 0 0 0 0 0 0 0 0 0 0 0 0 0 0 0 0 0.2 0"
         id="feColorMatrix17" />
      <feBlend
         mode="normal"
         in2="effect1_dropShadow"
         result="effect2_dropShadow"
         id="feBlend17" />
      <feBlend
         mode="normal"
         in="SourceGraphic"
         in2="effect2_dropShadow"
         result="shape"
         id="feBlend18" />
    </filter>
    <linearGradient
       id="paint3_linear"
       x1="16.2747"
       y1="30.0336"
       x2="8.73699"
       y2="16.9781"
       gradientUnits="userSpaceOnUse">
      <stop
         stop-color="#CCCCCC"
         id="stop28" />
      <stop
         offset="1"
         stop-color="#E6E6E6"
         id="stop29" />
    </linearGradient>
    <filter
       id="filter2_dd"
       x="20"
       y="30"
       width="24"
       height="11"
       filterUnits="userSpaceOnUse"
       color-interpolation-filters="sRGB">
      <feFlood
         flood-opacity="0"
         result="BackgroundImageFix"
         id="feFlood18" />
      <feColorMatrix
         in="SourceAlpha"
         type="matrix"
         values="0 0 0 0 0 0 0 0 0 0 0 0 0 0 0 0 0 0 127 0"
         id="feColorMatrix18" />
      <feOffset
         dy="0.5"
         id="feOffset18" />
      <feGaussianBlur
         stdDeviation="0.5"
         id="feGaussianBlur18" />
      <feColorMatrix
         type="matrix"
         values="0 0 0 0 0 0 0 0 0 0 0 0 0 0 0 0 0 0 0.1 0"
         id="feColorMatrix19" />
      <feBlend
         mode="normal"
         in2="BackgroundImageFix"
         result="effect1_dropShadow"
         id="feBlend19" />
      <feColorMatrix
         in="SourceAlpha"
         type="matrix"
         values="0 0 0 0 0 0 0 0 0 0 0 0 0 0 0 0 0 0 127 0"
         id="feColorMatrix20" />
      <feOffset
         dy="1"
         id="feOffset20" />
      <feGaussianBlur
         stdDeviation="1.5"
         id="feGaussianBlur20" />
      <feColorMatrix
         type="matrix"
         values="0 0 0 0 0 0 0 0 0 0 0 0 0 0 0 0 0 0 0.2 0"
         id="feColorMatrix21" />
      <feBlend
         mode="normal"
         in2="effect1_dropShadow"
         result="effect2_dropShadow"
         id="feBlend21" />
      <feBlend
         mode="normal"
         in="SourceGraphic"
         in2="effect2_dropShadow"
         result="shape"
         id="feBlend22" />
    </filter>
    <linearGradient
       id="paint5_linear"
       x1="35.149601"
       y1="39.955299"
       x2="28.850401"
       y2="29.044701"
       gradientUnits="userSpaceOnUse">
      <stop
         stop-color="#CCCCCC"
         id="stop32" />
      <stop
         offset="1"
         stop-color="#E6E6E6"
         id="stop33" />
    </linearGradient>
  </defs>
  <sodipodi:namedview
     id="namedview826"
     pagecolor="#505050"
     bordercolor="#ffffff"
     borderopacity="1"
     inkscape:pageshadow="0"
     inkscape:pageopacity="0"
     inkscape:pagecheckerboard="1"
     showgrid="false"
     inkscape:zoom="2.338"
     inkscape:cx="33.14799"
     inkscape:cy="163.17365"
     inkscape:window-width="2560"
     inkscape:window-height="1377"
     inkscape:window-x="-8"
     inkscape:window-y="-8"
     inkscape:window-maximized="1"
     inkscape:current-layer="g830"
     inkscape:showpageshadow="0"
     inkscape:deskcolor="#505050" />
  <g
     inkscape:groupmode="layer"
     inkscape:label="Image"
     id="g830">
    <path
       id="path1069"
       style="fill:#b9b9b9;fill-opacity:1;stroke:none;stroke-width:4;stroke-linecap:butt;stroke-linejoin:miter;stroke-opacity:1;stroke-dasharray:none;paint-order:stroke fill markers"
       d="M 93.602954,60.049335 50.731047,72.773594 16.784301,120.7871 l 7.671103,24.93733 -13.587289,25.80552 14.166726,2.2674 -17.0727917,39.92474 16.5729357,-11.46716 2.996883,13.52847 10.33681,-17.06414 8.760119,11.7772 9.00535,-11.4185 13.115991,7.79187 2.51646,-13.19251 8.499933,2.92101 1.254362,-14.16911 31.085217,-8.34307 32.35929,14.01134 33.17477,-21.25158 3.89481,-8.91092 -29.54053,8.62534 26.71851,-48.74913 -44.43743,12.96935 19.11221,-33.65946 -13.07124,3.89866 5.26486,-9.847772 -31.46121,9.216392 7.90282,-14.463388 -50.658151,14.801838 z m -21.448441,73.528145 13.929943,-4.3434 -14.739913,32.0135 -14.874706,-0.7807 -7.318701,-7.73255 z"
       sodipodi:nodetypes="cccccccccccccccccccccccccccccccccccc" />
    <path
       style="fill:#858585;fill-opacity:1;stroke:none;stroke-width:4;stroke-linecap:butt;stroke-linejoin:miter;stroke-miterlimit:4;stroke-dasharray:none;stroke-opacity:1;paint-order:stroke fill markers"
       d="m 79.801186,206.44395 6.242879,9.477 8.342735,-22.68146 17.23321,-9.45069 9.9466,16.64391 -11.45246,30.69084 -61.034999,16.01909 -21.375244,-5.1921 -9.758684,-22.00898 15.24178,10.74077 7.898214,-16.25845 8.662534,15.75175 11.741485,-18.12353 12.024526,11.70695 z"
       id="path11620"
       sodipodi:nodetypes="ccccccccccccccc" />
    <path
       style="fill:#e86666;fill-opacity:1;stroke:none;stroke-width:4;stroke-linecap:butt;stroke-linejoin:miter;stroke-opacity:1;stroke-dasharray:none;paint-order:stroke fill markers"
       d="m 172.6813,148.99072 25.47196,-29.84892 37.28307,-4.84588 -24.17496,31.64452 z"
       id="path21112"
       sodipodi:nodetypes="ccccc" />
    <path
       style="fill:#e75d5d;fill-opacity:1;stroke:none;stroke-width:4;stroke-linecap:butt;stroke-linejoin:miter;stroke-opacity:1;stroke-dasharray:none;paint-order:stroke fill markers"
       d="M 154.5764,115.18163 173.49799,83.507047 209.26268,74.49242 190.3109,106.21744 Z"
       id="path21112-4" />
    <path
       style="fill:#eb6f6f;fill-opacity:1;stroke:none;stroke-width:4;stroke-linecap:butt;stroke-linejoin:miter;stroke-opacity:1;stroke-dasharray:none;paint-order:stroke fill markers"
       d="m 131.26639,88.962173 21.69353,-42.11387 45.10325,-14.434437 -21.72812,42.18096 z"
       id="path21112-4-4" />
    <path
       style="fill:#f4b2b2;fill-opacity:1;stroke:none;stroke-width:4;stroke-linecap:butt;stroke-linejoin:miter;stroke-opacity:1;stroke-dasharray:none;paint-order:stroke fill markers"
       d="M 116.59917,34.791265 120.23751,18.660883 134.21134,9.8306867 130.5672,25.986767 Z"
       id="path21112-4-4-5" />
    <path
       style="fill:#ed8c8c;fill-opacity:1;stroke:none;stroke-width:4;stroke-linecap:butt;stroke-linejoin:miter;stroke-dasharray:none;stroke-opacity:1;paint-order:stroke fill markers"
       d="M 73.616468,59.044058 79.769015,32.461653 102.77852,18.463302 96.616172,45.08806 Z"
       id="path21112-4-4-4-6" />
    <path
       style="fill:#e96060;fill-opacity:1;stroke:none;stroke-width:4;stroke-linecap:butt;stroke-linejoin:miter;stroke-opacity:1;stroke-dasharray:none;paint-order:stroke fill markers"
       d="M 89.899065,88.184417 103.00673,53.552049 136.49757,38.908943 123.36901,73.596492 Z"
       id="path21112-4-4-4-6-2" />
    <path
       style="fill:#f7cdcd;fill-opacity:1;stroke:none;stroke-width:4;stroke-linecap:butt;stroke-linejoin:miter;stroke-opacity:1;stroke-dasharray:none;paint-order:stroke fill markers"
       d="M 146.91213,39.589317 154.06175,18.639269 173.7834,9.2309696 166.62237,30.214402 Z"
       id="path21112-4-4-4-6-8"
       inkscape:transform-center-x="10.937037"
       inkscape:transform-center-y="-2.8582069" />
    <path
       style="fill:#fff1f1;fill-opacity:1;stroke:none;stroke-width:4;stroke-linecap:butt;stroke-linejoin:miter;stroke-opacity:1;stroke-dasharray:none;paint-order:stroke fill markers"
       d="m 181.94202,27.222337 5.60623,-14.998979 14.13492,-5.7421786 -5.61521,15.0228776 z"
       id="path21112-4-4-4-6-0-4"
       inkscape:transform-center-x="-2.1867181"
       inkscape:transform-center-y="3.3782362" />
    <path
       style="fill:#f4bcbc;fill-opacity:1;stroke:none;stroke-width:4;stroke-linecap:butt;stroke-linejoin:miter;stroke-opacity:1;stroke-dasharray:none;paint-order:stroke fill markers"
       d="M 196.05479,66.550207 209.037,44.418865 232.9312,39.249375 219.92832,61.415971 Z"
       id="path21112-4-4-4-6-0-4-5" />
    <path
       style="fill:#f4baba;fill-opacity:1;stroke:none;stroke-width:4;stroke-linecap:butt;stroke-linejoin:miter;stroke-opacity:1;stroke-dasharray:none;paint-order:stroke fill markers"
       d="m 206.85203,104.63028 11.414,-18.34626 20.22824,-3.827998 -11.43219,18.375458 z"
       id="path21112-4-4-4-6-0-4-5-8" />
    <path
       style="fill:#ec8585;fill-opacity:1;stroke:none;stroke-width:4;stroke-linecap:butt;stroke-linejoin:miter;stroke-opacity:1;stroke-dasharray:none;paint-order:stroke fill markers"
       d="m 186.05981,171.4236 12.10602,-12.61153 16.65272,0.35609 -12.12531,12.6316 z"
       id="path21112-4-4-4-6-0-4-5-8-0" />
    <path
       d="M 126.41988,171.38461 H 162.511 v -15.78987 h -31.57973 c -2.48126,0 -4.51139,2.03013 -4.51139,4.51139 z"
       fill="#cccccc"
       id="path1"
       style="fill:#311010;fill-opacity:1;stroke-width:2.25569" />
    <path
       d="M 198.60212,155.59474 H 162.511 v 15.78987 h 36.09112 z"
       fill="#999999"
       id="path2"
       style="fill:#632828;fill-opacity:1;stroke-width:2.25569" />
    <path
       d="m 234.69324,171.38461 h -36.09112 v -15.78987 h 31.57973 c 2.48126,0 4.51139,2.03013 4.51139,4.51139 z"
       fill="#666666"
       id="path3"
       style="fill:#7b3333;fill-opacity:1;stroke-width:2.25569" />
    <path
       d="m 230.18185,236.79976 h -99.25058 c -2.48126,0 -4.51139,-2.03013 -4.51139,-4.51139 v -63.15946 h 108.27336 v 63.15946 c 0,2.48126 -2.03013,4.51139 -4.51139,4.51139 z"
       fill="url(#paint0_linear)"
       id="path4"
       style="fill:url(#paint0_linear);stroke-width:2.25569" />
    <path
       d="m 15.2,24.3 -8.80001,8.8 c -0.5,0.5 -0.5,1.2 0,1.6 l 1.8,1.8 C 8.69999,37 9.4,37 9.8,36.5 l 8.8,-8.8 c 0.5,-0.5 0.5,-1.2 0,-1.6 l -1.8,-1.8 c -0.4,-0.4 -1.2,-0.4 -1.6,0 z"
       fill="url(#paint1_linear)"
       id="path5"
       style="fill:#d8a7a7;fill-opacity:1"
       transform="matrix(2.255695,0,0,2.255695,126.41988,142.06057)" />
    <path
       d="m 9.8,17.3 8.8,8.8 c 0.5,0.5 0.5,1.2 0,1.6 l -1.8,1.8 c -0.5,0.5 -1.2,0.5 -1.6,0 L 6.39999,20.7 c -0.5,-0.5 -0.5,-1.2 0,-1.6 l 1.8,-1.8 C 8.59999,16.9 9.4,16.9 9.8,17.3 Z"
       fill="url(#paint4_linear)"
       id="path9"
       style="fill:#f7efef;stroke-width:1.00013521;stroke-dasharray:none;fill-opacity:1"
       transform="matrix(2.255695,0,0,2.255695,126.41988,142.06057)" />
    <path
       d="M 40,32 H 24 c -0.6,0 -1,0.4 -1,1 v 3 c 0,0.6 0.4,1 1,1 h 16 c 0.6,0 1,-0.4 1,-1 v -3 c 0,-0.6 -0.4,-1 -1,-1 z"
       fill="url(#paint5_linear)"
       id="path10"
       style="fill:#ffffff;fill-opacity:1"
       transform="matrix(2.255695,0,0,2.255695,126.41988,142.06057)" />
  </g>
</svg>
