<?xml version="1.0" encoding="UTF-8" standalone="no"?>
<!-- Created with Inkscape (http://www.inkscape.org/) -->

<svg
   version="1.1"
   id="svg824"
   width="1024"
   height="1024"
   viewBox="0 0 1024 1024"
   sodipodi:docname="icon_outlined.svg"
   inkscape:version="1.4.2 (f4327f4, 2025-05-13)"
   inkscape:export-filename="icon_outlined.png"
   inkscape:export-xdpi="96"
   inkscape:export-ydpi="96"
   xmlns:inkscape="http://www.inkscape.org/namespaces/inkscape"
   xmlns:sodipodi="http://sodipodi.sourceforge.net/DTD/sodipodi-0.dtd"
   xmlns="http://www.w3.org/2000/svg"
   xmlns:svg="http://www.w3.org/2000/svg">
  <defs
     id="defs828" />
  <sodipodi:namedview
     id="namedview826"
     pagecolor="#505050"
     bordercolor="#ffffff"
     borderopacity="1"
     inkscape:pageshadow="0"
     inkscape:pageopacity="0"
     inkscape:pagecheckerboard="1"
     showgrid="false"
     inkscape:zoom="0.82660783"
     inkscape:cx="468.78337"
     inkscape:cy="424.02212"
     inkscape:window-width="2560"
     inkscape:window-height="1377"
     inkscape:window-x="-8"
     inkscape:window-y="-8"
     inkscape:window-maximized="1"
     inkscape:current-layer="g830"
     inkscape:showpageshadow="0"
     inkscape:deskcolor="#505050" />
  <g
     inkscape:groupmode="layer"
     inkscape:label="Image"
     id="g830"
     transform="translate(-7.9620493,-6.4811794)">
    <path
       id="path11620-1"
       style="fill:#000000;fill-opacity:1;stroke:#000000;stroke-width:20;stroke-linecap:butt;stroke-linejoin:miter;stroke-miterlimit:4;stroke-dasharray:none;stroke-opacity:1"
       d="m 865.65867,35.463215 -56.96484,23.142579 -22.59375,60.447256 56.92969,-23.044913 z m -112.43945,11.082032 -79.48242,37.917968 -28.81446,84.431635 79.43555,-37.7832 z m -159.48242,2.417968 -56.3164,35.585938 -14.66407,65.007807 56.29492,-35.48242 z m -126.67969,39.960938 -92.73047,56.416007 -24.79687,107.13086 92.69336,-56.24414 z m 384.01367,51.052727 -181.77344,58.17188 -87.42968,169.72656 181.63476,-57.90234 z m -248.11913,26.17578 -134.97461,59.01367 -52.82618,139.57422 134.89063,-58.79101 z m 388.64257,1.3711 -96.29688,20.83398 -52.32226,89.19336 96.21484,-20.69141 z M 430.0786,251.35188 257.29734,302.63313 120.4868,496.13508 l 30.91601,100.5 -54.759759,104.00196 57.095699,9.13672 -68.806639,160.90429 66.791009,-46.21484 12.07813,54.52148 41.66016,-68.77148 35.30468,47.46484 36.29297,-46.01953 52.85938,31.40235 10.14062,-53.16797 34.25586,11.77343 5.05664,-57.10351 125.27735,-33.625 130.41406,56.46875 133.69922,-85.64844 15.69726,-35.91211 -119.05273,34.76172 107.67969,-196.4668 -179.08984,52.26954 77.02538,-135.6543 -52.67968,15.71289 21.21679,-39.6875 -126.79296,37.14258 31.84961,-58.28907 -204.16016,59.65235 z m 466.12695,58.20703 -144.13672,36.33008 -76.25781,127.6543 144.01562,-36.12696 z m 117.80855,32.09571 -81.5234,15.42773 -46,73.9375 81.44922,-15.31055 z m -12.3242,128.31836 -150.25584,19.53125 -102.65625,120.29492 155.48242,-12.29297 z m -601.91209,60.20507 -59.40429,129.01953 -59.94727,-3.14648 -29.49609,-31.16406 92.70703,-77.20508 z m 451.70703,119.20313 -48.79101,50.82617 67.03711,1.51563 48.86523,-50.90625 z m -360.86132,83.42187 -69.45117,38.08789 -33.62305,91.41016 -25.16016,-38.19336 -25.33984,69.7832 -48.46094,-47.18164 -47.32031,73.04102 -34.91016,-63.48242 -31.83203,65.52343 -61.42578,-43.2871 42.77539,109.38671 68.9082,19.20126 259.77149,-83.52157 46.1543,-123.68945 z"
       inkscape:label="Base Union" />
    <path
       style="fill:#858585;fill-opacity:1;stroke:none;stroke-width:5.40634;stroke-linecap:butt;stroke-linejoin:miter;stroke-miterlimit:4;stroke-dasharray:none;stroke-opacity:1"
       d="m 362.40783,824.2103 25.15981,38.19383 33.62256,-91.40993 69.45257,-38.0878 40.0864,67.07763 -46.15526,123.68902 -259.77092,83.52095 -68.90803,-19.20128 -42.77659,-109.38489 61.42682,43.28703 31.83107,-65.52416 34.91141,63.48208 47.32007,-73.04074 48.46077,47.18089 z"
       id="path11620"
       sodipodi:nodetypes="ccccccccccccccc" />
    <path
       id="path1069"
       style="fill:#b9b9b9;fill-opacity:1;stroke:none;stroke-width:5.39788px;stroke-linecap:butt;stroke-linejoin:miter;stroke-opacity:1"
       d="m 430.09752,251.45414 -172.78066,51.2808 -136.81084,193.50214 30.91578,100.50144 -54.75896,104.00039 57.09418,9.13799 -68.806091,160.90311 66.791591,-46.21449 12.07792,54.5219 41.659,-68.77122 35.30469,47.464 36.29301,-46.01838 52.85955,31.40248 10.14173,-53.16793 34.2561,11.77214 5.05528,-57.10379 125.27841,-33.62391 130.41314,56.46795 133.69965,-85.64728 15.69671,-35.91244 -119.05308,34.76151 107.67988,-196.46682 -179.08997,52.26856 77.02527,-135.65303 -52.6792,15.71223 21.21824,-39.68811 -126.79373,37.14354 31.84963,-58.28977 -204.16048,59.65378 z m -86.44066,296.33023 56.13991,-17.5046 -59.40422,129.01954 -59.94745,-3.14635 -29.49554,-31.16341 z"
       sodipodi:nodetypes="cccccccccccccccccccccccccccccccccccc" />
    <path
       style="fill:#e86666;fill-opacity:1;stroke:none;stroke-width:7.68773px;stroke-linecap:butt;stroke-linejoin:miter;stroke-opacity:1"
       d="M 748.79595,609.9022 851.45204,489.60626 1001.7088,470.07658 904.27983,597.60908 Z"
       id="path21112"
       sodipodi:nodetypes="ccccc" />
    <path
       style="fill:#e75d5d;fill-opacity:1;stroke:none;stroke-width:7.43645px;stroke-linecap:butt;stroke-linejoin:miter;stroke-opacity:1"
       d="M 675.8303,473.64614 752.08735,345.99248 896.22479,309.66209 819.84607,437.51901 Z"
       id="path21112-4" />
    <path
       style="fill:#eb6f6f;fill-opacity:1;stroke:none;stroke-width:9.54805px;stroke-linecap:butt;stroke-linejoin:miter;stroke-opacity:1"
       d="M 581.88722,367.97752 669.31563,198.25186 851.08897,140.07876 763.52115,310.0748 Z"
       id="path21112-4-4" />
    <path
       style="fill:#f4b2b2;fill-opacity:1;stroke:none;stroke-width:3.33278px;stroke-linecap:butt;stroke-linejoin:miter;stroke-opacity:1"
       d="m 522.77597,149.66006 14.66309,-65.008032 56.31678,-35.587108 -14.68647,65.1116 z"
       id="path21112-4-4-5" />
    <path
       style="fill:#ed8c8c;fill-opacity:1;stroke:none;stroke-width:5.49565px;stroke-linecap:butt;stroke-linejoin:miter;stroke-opacity:1"
       d="m 349.54878,252.574 24.79575,-107.13136 92.732,-56.415602 -24.83525,107.302052 z"
       id="path21112-4-4-4-6" />
    <path
       style="fill:#e96060;fill-opacity:1;stroke:none;stroke-width:7.45838px;stroke-linecap:butt;stroke-linejoin:miter;stroke-opacity:1"
       d="m 415.17026,364.84303 52.82599,-139.574 134.97346,-59.01407 -52.9102,139.79639 z"
       id="path21112-4-4-4-6-2" />
    <path
       style="fill:#f7cdcd;fill-opacity:1;stroke:none;stroke-width:4.45865px;stroke-linecap:butt;stroke-linejoin:miter;stroke-opacity:1"
       d="m 644.94206,168.99698 28.81412,-84.43206 79.48141,-37.916957 -28.8601,84.566607 z"
       id="path21112-4-4-4-6-8"
       inkscape:transform-center-x="44.078019"
       inkscape:transform-center-y="-11.519033" />
    <path
       style="fill:#fff1f1;fill-opacity:1;stroke:none;stroke-width:3.21466px;stroke-linecap:butt;stroke-linejoin:miter;stroke-opacity:1"
       d="m 786.11814,119.15606 22.59401,-60.448291 56.966,-23.141902 -22.6302,60.544609 z"
       id="path21112-4-4-4-6-0-4"
       inkscape:transform-center-x="-8.8128251"
       inkscape:transform-center-y="13.614834" />
    <path
       style="fill:#f4bcbc;fill-opacity:1;stroke:none;stroke-width:5.15111px;stroke-linecap:butt;stroke-linejoin:miter;stroke-opacity:1"
       d="m 842.99487,277.65369 52.32039,-89.19286 96.29746,-20.83387 -52.40369,89.33494 z"
       id="path21112-4-4-4-6-0-4-5" />
    <path
       style="fill:#f4baba;fill-opacity:1;stroke:none;stroke-width:4.33782px;stroke-linecap:butt;stroke-linejoin:miter;stroke-opacity:1"
       d="m 886.50948,431.1225 46.00026,-73.93837 81.52306,-15.42745 -46.07357,74.05605 z"
       id="path21112-4-4-4-6-0-4-5-8" />
    <path
       style="fill:#ec8585;fill-opacity:1;stroke:none;stroke-width:3.5096px;stroke-linecap:butt;stroke-linejoin:miter;stroke-opacity:1"
       d="m 802.7135,700.31031 48.7892,-50.8265 67.11314,1.4351 -48.86695,50.90738 z"
       id="path21112-4-4-4-6-0-4-5-8-0" />
  </g>
</svg>
