<?xml version="1.0" encoding="UTF-8" standalone="no"?>
<!-- Created with Inkscape (http://www.inkscape.org/) -->

<svg
   width="1256"
   height="298"
   viewBox="0 0 332.31674 78.845834"
   version="1.1"
   id="svg1"
   inkscape:version="1.4.2 (f4327f4, 2025-05-13)"
   sodipodi:docname="logo.svg"
   xmlns:inkscape="http://www.inkscape.org/namespaces/inkscape"
   xmlns:sodipodi="http://sodipodi.sourceforge.net/DTD/sodipodi-0.dtd"
   xmlns="http://www.w3.org/2000/svg"
   xmlns:svg="http://www.w3.org/2000/svg">
  <sodipodi:namedview
     id="namedview1"
     pagecolor="#505050"
     bordercolor="#ffffff"
     borderopacity="1"
     inkscape:showpageshadow="0"
     inkscape:pageopacity="0"
     inkscape:pagecheckerboard="1"
     inkscape:deskcolor="#505050"
     inkscape:document-units="px"
     inkscape:zoom="1.4142136"
     inkscape:cx="654.07377"
     inkscape:cy="247.84093"
     inkscape:window-width="2560"
     inkscape:window-height="1377"
     inkscape:window-x="-8"
     inkscape:window-y="-8"
     inkscape:window-maximized="1"
     inkscape:current-layer="layer1"
     showgrid="false" />
  <defs
     id="defs1">
    <rect
       x="137.5"
       y="56.25"
       width="215.75"
       height="105.9375"
       id="rect2" />
    <rect
       x="127.36464"
       y="90.29583"
       width="513.73572"
       height="75.893829"
       id="rect3" />
    <rect
       x="114.05789"
       y="219.56143"
       width="577.89325"
       height="198.65082"
       id="rect1" />
    <rect
       x="114.05789"
       y="219.56143"
       width="577.89325"
       height="198.65082"
       id="rect1-9" />
    <rect
       x="114.05789"
       y="219.56143"
       width="577.89325"
       height="198.65082"
       id="rect1-0" />
  </defs>
  <g
     inkscape:label="Layer 1"
     inkscape:groupmode="layer"
     id="layer1">
    <path
       id="path1-1-7-2"
       style="font-weight:500;font-size:73.3333px;line-height:0;font-family:Rubik;-inkscape-font-specification:'Rubik, Medium';letter-spacing:0px;word-spacing:0px;white-space:pre;display:inline;fill:#ffffff;fill-opacity:1;stroke:#000000;stroke-width:0.00377574;stroke-dasharray:none;stroke-opacity:1"
       d="m 133.66266,10.115663 c -2.40924,0.0104 -4.60472,0.478207 -6.45646,1.546159 -0.23061,0.1328 -0.92389,0.554085 -1.57303,1.14515 -0.16336,0.148781 -0.32095,0.303588 -0.47335,0.465088 -0.18824,0.19958 -0.7354,0.807694 -1.22163,1.614372 -0.41746,0.688166 -0.78982,1.61969 -0.95602,2.259293 -0.19084,0.679123 -0.32954,1.398269 -0.41754,2.196249 -0.0724,0.734685 -0.14263,1.478051 -0.14263,4.780071 0,1.086554 0.014,2.185564 0.0393,3.29799 0.0511,1.575449 0.27094,2.698493 0.36794,3.128491 0.1781,0.802822 0.51091,1.883853 1.07074,2.848406 0.62781,1.084234 1.39348,1.878511 2.12286,2.45153 1.36918,1.075076 3.74149,2.21385 7.64088,2.20245 2.79217,0.0042 5.89424,-0.571188 8.12974,-2.616895 1.46852,-1.344237 2.29056,-3.018259 2.70474,-4.885491 0.108,-0.540845 0.21092,-1.0832 0.26252,-1.632975 0.081,-0.733473 0.0965,-1.191959 0.10645,-1.495516 0.0252,-1.112426 0.0393,-2.211436 0.0393,-3.29799 0,-1.086554 -0.014,-2.198969 -0.0393,-3.337265 -0.0516,-1.525939 -0.26792,-2.685948 -0.46612,-3.435449 -0.1106,-0.419899 -0.20602,-0.694441 -0.29042,-0.928109 -0.20934,-0.570998 -0.4382,-1.068022 -0.7214,-1.53479 -0.29866,-0.495468 -0.86034,-1.318451 -1.69602,-2.07946 -0.33024,-0.288599 -0.61548,-0.527249 -1.0139,-0.795817 -0.21072,-0.14254 -0.88315,-0.556588 -1.33635,-0.749309 -1.69012,-0.792893 -3.60982,-1.143983 -5.68027,-1.146183 z M 4.3237676,10.503236 v 27.164237 h 5.4715013 v -10.01076 -4.307748 -8.536948 h 5.6658051 c 1.603952,0 2.781329,0.401053 3.531567,1.203028 0.750236,0.776111 1.125513,1.81017 1.125513,3.103687 0,1.396998 -0.401048,2.457866 -1.203027,3.182235 -0.801955,0.698495 -1.95358,1.047998 -3.454053,1.047998 h -2.657203 l 2.341976,4.307748 h 0.50953 c 2.017873,0 3.776742,-0.311355 5.277198,-0.932243 1.500472,-0.620887 2.664455,-1.55185 3.492294,-2.793628 0.827854,-1.267642 1.242301,-2.871832 1.242301,-4.81211 0,-1.914403 -0.414447,-3.505191 -1.242301,-4.772836 C 23.59703,13.05238 22.433047,12.095635 20.932575,11.474753 19.432119,10.827994 17.67325,10.504392 15.655377,10.50427 Z m 25.5726024,0 V 37.667473 H 30.827579 49.18305 V 33.205729 H 35.135327 v -7.101376 l 8.015016,-0.001 4.268473,-4.26744 H 35.135327 v -6.868832 h 9.584946 L 49.18305,10.50327 Z m 24.137031,0 0.001,27.164237 h 5.393987 l -10e-4,-10.321852 v -4.307748 -8.225856 h 5.471501 c 1.603952,0 2.781333,0.374247 3.531568,1.12448 0.776118,0.724371 1.164787,1.733687 1.164787,3.027206 0,1.293511 -0.388669,2.302834 -1.164787,3.027205 -0.776095,0.698494 -1.953476,1.046965 -3.531568,1.046965 h -2.461865 l 2.341976,4.307748 5.607927,10.321852 h 0.993221 l 3.765146,0.0021 V 35.338932 L 74.719479,34.618563 69.943542,26.5312 c 1.578054,-0.569146 2.833807,-1.487746 3.765146,-2.755388 0.957194,-1.267648 1.436605,-2.858432 1.436605,-4.772835 0,-2.768124 -0.906235,-4.87646 -2.717147,-6.325196 -1.810938,-1.448737 -4.282188,-2.173513 -7.412469,-2.173511 l -10.050033,-10e-4 z m 26.116238,0 v 27.164237 h 5.510775 V 10.503236 Z m 70.043281,0 0.001,27.164237 h 5.39399 l -0.001,-10.321852 v -4.307748 -8.225856 h 5.4715 c 1.60396,0 2.78133,0.374247 3.53157,1.12448 0.77612,0.724371 1.16479,1.733687 1.16479,3.027206 0,1.293511 -0.38867,2.302834 -1.16479,3.027205 -0.7761,0.698494 -1.95347,1.046965 -3.53157,1.046965 h -2.46186 l 2.34198,4.307748 5.60792,10.321852 h 0.99322 l 3.76515,0.0021 v -2.330608 l -0.42582,-0.720369 -4.77593,-8.087363 c 1.57806,-0.569146 2.8338,-1.487746 3.76514,-2.755388 0.9572,-1.267648 1.43661,-2.858432 1.43661,-4.772835 0,-2.768124 -0.90627,-4.87646 -2.71715,-6.325196 -1.81094,-1.448737 -4.28217,-2.173513 -7.41247,-2.173511 l -10.05003,-10e-4 z m 49.28382,0 v 27.164237 h 0.93121 18.35547 v -4.461744 h -14.04773 v -7.101376 l 8.01502,-0.001 4.26847,-4.26744 h -12.28349 v -6.868832 h 9.58495 l 4.46278,-4.463811 z m 24.13806,0 -0.001,27.164237 c 1.72035,5.3e-4 3.44108,-9.6e-5 5.16144,0 V 19.35541 l 7.54786,13.013161 7.54786,-13.013161 v 49.986619 l 5.15938,-5.16041 V 11.474753 10.50427 h -5.15938 l -7.5675,13.01316 -7.52925,-13.014194 z m -131.861734,0.001 -0.001,27.163203 c 1.720373,5.3e-4 3.441069,-9.4e-5 5.161442,0 V 19.35541 l 7.547862,13.013161 7.54786,-13.013161 v 18.312063 c 1.60214,5.3e-4 3.74164,5.3e-4 5.16041,0 l -0.001,-26.19272 V 10.50427 h -5.15937 l -7.5675,13.01316 -7.529255,-13.01316 z m 82.233754,0 v 4.773869 h 8.1101 v 26.899653 16.763837 c 4e-5,2.121372 -0.42664,3.477569 -1.43558,4.512386 -0.98305,1.008944 -2.35426,1.513086 -4.11344,1.513086 -1.75918,0 -3.14275,-0.504142 -4.15168,-1.513086 -1.00894,-1.034817 -1.43558,-2.391014 -1.43558,-4.512386 V 48.601173 c -1.82411,1.823898 -3.64839,3.647643 -5.47253,5.471502 v 4.868954 c 0,2.483554 0.4526,4.527963 1.35806,6.131926 0.90545,1.578096 2.18696,2.754425 3.84266,3.530534 1.65568,0.750243 3.60837,1.125513 5.85907,1.125513 2.27658,0 4.22924,-0.37527 5.85907,-1.125513 1.6557,-0.776109 2.92381,-1.952438 3.80339,-3.530534 0.90546,-1.603963 1.35806,-3.648372 1.35806,-6.131926 V 42.177792 15.278139 c 1.93914,-2.42e-4 5.55625,-10e-4 5.55625,-10e-4 l 2.55385,-2.553849 v -2.21902 z m -40.55051,4.079338 c 0.2083,-0.0078 0.38962,-0.0056 0.53434,0 0.8725,0.04104 2.68025,0.303194 3.9057,1.698087 0.2176,0.254895 0.41775,0.519665 0.69867,1.010792 0.2248,0.42594 0.38506,0.914446 0.50126,1.459342 0.0964,0.465367 0.1317,0.712656 0.1819,1.255738 0.0266,0.299335 0.0469,0.605966 0.0589,0.932243 0.0252,1.112425 0.0393,2.159886 0.0393,3.14296 0,0.957202 -0.014,2.005699 -0.0393,3.143995 -0.0802,2.331838 -0.60075,3.961397 -1.56373,4.889625 -1.06007,0.965312 -2.04472,1.224507 -2.6727,1.349788 -0.4902,0.09414 -1.0067,0.13579 -1.5627,0.12299 -0.5174,-0.02238 -0.96156,-0.07081 -1.37252,-0.150895 -1.10963,-0.230378 -2.61652,-0.945445 -3.34554,-2.353345 -0.002,-0.0018 -0.002,-0.0034 -0.003,-0.0052 -5e-4,-0.001 -5.8e-4,-0.0019 -10e-4,-0.0031 -0.53398,-1.24034 -0.82579,-2.046617 -0.82579,-6.99389 0,-0.983074 0.014,-2.030535 0.0393,-3.14296 0.0552,-1.581097 0.28412,-2.78156 0.74104,-3.647323 0.52169,-0.912074 1.13619,-1.663501 2.35644,-2.198316 0.83822,-0.374929 1.70475,-0.487347 2.32957,-0.510563 z m -11.79876,27.206611 c -2.40921,0.0104 -4.60575,0.478211 -6.45749,1.546159 -0.23062,0.1328 -0.92287,0.554084 -1.57199,1.14515 -0.16336,0.14878 -0.32096,0.303588 -0.47336,0.465088 -0.18824,0.19958 -0.73539,0.807694 -1.22163,1.614372 -0.41746,0.688167 -0.78982,1.619687 -0.95602,2.259293 -0.19084,0.67912 -0.32954,1.398272 -0.41754,2.196249 -0.0724,0.734685 -0.14366,1.478051 -0.14366,4.780071 0,1.086554 0.014,2.185564 0.0393,3.29799 0.0242,0.745245 0.0891,1.368879 0.15813,1.88619 1.78439,-1.784119 3.56932,-3.567456 5.35368,-5.351612 0.001,-0.948024 0.013,-1.947741 0.0372,-3.014803 0.0552,-1.581098 0.28412,-2.781556 0.74104,-3.647323 0.5217,-0.912071 1.1362,-1.663502 2.35644,-2.198316 1.11764,-0.499903 2.28398,-0.532903 2.86288,-0.510563 0.60284,0.02836 1.65059,0.1895 2.64583,0.729671 1.1921,-1.191975 2.38496,-2.38301 3.57705,-3.574976 -0.29036,-0.1748 -0.56143,-0.353933 -0.84957,-0.476457 -1.69012,-0.792889 -3.60977,-1.143983 -5.68027,-1.146183 z m 81.95676,0 c -2.40919,0.0104 -4.60471,0.478213 -6.45645,1.546159 -0.23062,0.1328 -0.92389,0.554084 -1.57303,1.14515 -0.1634,0.14878 -0.32096,0.303588 -0.47336,0.465088 -0.1882,0.19958 -0.73539,0.807696 -1.22163,1.614372 -0.41746,0.688167 -0.78878,1.619687 -0.95498,2.259293 -0.1908,0.67912 -0.32954,1.398274 -0.41754,2.196249 -0.0724,0.734685 -0.14366,1.478055 -0.14366,4.780071 0,1.086554 0.0141,2.185566 0.0393,3.29799 0.051,1.575446 0.27197,2.698497 0.36897,3.128491 0.178,0.80282 0.5109,1.883854 1.07074,2.848406 0.62781,1.084234 1.39348,1.878512 2.12286,2.45153 1.36918,1.075076 3.74047,2.21385 7.63985,2.20245 2.79216,0.0042 5.89426,-0.571189 8.12974,-2.616895 1.46851,-1.344236 2.29054,-3.018261 2.70474,-4.885491 0.0978,-0.490026 0.18661,-0.982076 0.24185,-1.478979 h -5.60793 c -0.23808,1.36743 -0.69366,2.387494 -1.3777,3.046843 -1.06006,0.965312 -2.04472,1.224508 -2.6727,1.349788 -0.4902,0.09414 -1.0067,0.13579 -1.5627,0.12299 -0.5174,-0.02238 -0.96156,-0.07081 -1.37252,-0.150895 -1.10962,-0.230379 -2.61651,-0.945445 -3.34553,-2.353345 -0.002,-0.0018 -0.004,-0.0034 -0.004,-0.0052 -5e-4,-10e-4 -5.7e-4,-0.0019 -0.001,-0.0031 -0.53398,-1.240335 -0.82476,-2.046621 -0.82476,-6.993889 0,-0.983072 0.0141,-2.030538 0.0393,-3.142961 0.0552,-1.581096 0.28412,-2.781556 0.74104,-3.647323 0.52169,-0.912069 1.13618,-1.663504 2.35644,-2.198316 1.11764,-0.499903 2.28398,-0.532903 2.86288,-0.510563 0.87248,0.04104 2.68025,0.303191 3.9057,1.698087 0.2176,0.254891 0.41775,0.519667 0.69867,1.010792 0.2248,0.42594 0.38506,0.914451 0.50126,1.459342 0.0278,0.13396 0.0426,0.235122 0.062,0.345199 h 5.58932 c -0.0918,-0.712176 -0.21043,-1.308489 -0.32659,-1.747697 -0.1106,-0.419897 -0.20602,-0.694437 -0.29042,-0.928109 -0.20934,-0.570998 -0.43821,-1.068017 -0.72141,-1.53479 -0.29866,-0.495467 -0.86034,-1.318447 -1.69602,-2.07946 -0.33026,-0.288599 -0.61446,-0.527249 -1.01286,-0.795817 -0.21073,-0.142541 -0.88315,-0.556589 -1.33635,-0.749309 -1.69012,-0.792887 -3.61081,-1.143983 -5.68131,-1.146183 z m 61.58385,0 c -2.40921,0.0104 -4.60474,0.478211 -6.45645,1.546159 -0.23062,0.1328 -0.9239,0.554084 -1.57304,1.14515 -0.1634,0.14878 -0.32095,0.303588 -0.47335,0.465088 -0.1882,0.19958 -0.73539,0.807694 -1.22163,1.614372 -0.41746,0.688167 -0.78878,1.619687 -0.95498,2.259293 -0.1908,0.67912 -0.32955,1.398272 -0.41755,2.196249 -0.0724,0.734685 -0.14366,1.478051 -0.14366,4.780071 0,1.086554 0.0141,2.185564 0.0393,3.29799 0.051,1.575448 0.27197,2.698497 0.36897,3.128491 0.1782,0.802822 0.5109,1.883852 1.07074,2.848406 0.62782,1.084234 1.39349,1.878512 2.12287,2.45153 1.36918,1.075076 3.74046,2.21385 7.63984,2.20245 2.79216,0.0042 5.89424,-0.571187 8.12974,-2.616895 1.46852,-1.344236 2.29057,-3.018259 2.70475,-4.885491 0.10799,-0.54084 0.21091,-1.083205 0.26251,-1.632975 0.081,-0.733477 0.0975,-1.191955 0.10749,-1.495516 0.0252,-1.112426 0.0382,-2.211436 0.0382,-3.29799 0,-1.086554 -0.012,-2.198969 -0.0382,-3.337265 -0.0516,-1.525934 -0.26896,-2.685948 -0.46716,-3.435449 -0.1106,-0.419899 -0.20602,-0.694437 -0.29042,-0.928109 -0.20934,-0.570998 -0.4382,-1.068017 -0.7214,-1.53479 -0.29866,-0.495467 -0.86034,-1.318447 -1.69602,-2.07946 -0.33026,-0.288599 -0.61446,-0.527249 -1.01286,-0.795817 -0.21074,-0.142541 -0.88313,-0.556589 -1.33635,-0.749309 -1.69012,-0.792889 -3.61081,-1.143983 -5.68131,-1.146183 z m 53.20296,0 c -2.0955,0 -3.90692,0.336094 -5.43326,1.008724 -1.50048,0.672627 -2.66446,1.591222 -3.49229,2.755388 -0.80198,1.164169 -1.20303,2.497204 -1.20303,3.997689 0,1.552223 0.32372,2.832678 0.97048,3.841626 0.67264,1.008943 1.65514,1.84918 2.94866,2.52181 1.31938,0.646758 2.94935,1.203483 4.88962,1.669149 1.68156,0.413927 3.02697,0.814971 4.03593,1.203028 1.03478,0.362187 1.79773,0.775601 2.28927,1.241268 0.49152,0.439795 0.73794,1.034661 0.73794,1.784904 0,1.060684 -0.46599,1.901956 -1.39733,2.522844 -0.90546,0.62089 -2.28902,0.931209 -4.15169,0.931209 -1.16416,0 -2.13429,-0.155679 -2.91041,-0.466121 -0.75022,-0.310447 -1.34616,-0.698091 -1.78594,-1.163754 -0.43978,-0.491538 -0.86714,-1.484146 -0.89194,-2.211751 h -1.20302 -3.45406 -0.81442 c 0.008,1.926497 0.49095,3.298611 1.31878,4.462777 0.8537,1.1383 2.08266,2.069261 3.6866,2.793628 1.62982,0.698504 3.64846,1.047998 6.05441,1.047998 2.19897,2e-6 4.12586,-0.323727 5.78156,-0.970483 1.6557,-0.646761 2.93617,-1.565352 3.84163,-2.755388 0.93134,-1.215906 1.39733,-2.676784 1.39733,-4.384229 0,-1.526356 -0.32372,-2.781037 -0.97048,-3.764112 -0.64676,-1.008944 -1.66845,-1.836808 -3.06545,-2.483569 -1.397,-0.646758 -3.19501,-1.216884 -5.39399,-1.708423 -0.44422,-0.11846 -0.86437,-0.234079 -1.25987,-0.348299 -0.98642,-0.284886 -1.82102,-0.556926 -2.50424,-0.815455 -0.93132,-0.362182 -1.61694,-0.775601 -2.05672,-1.241268 -0.41394,-0.491534 -0.62115,-1.099807 -0.62115,-1.824178 0,-1.086556 0.42682,-1.888646 1.28054,-2.406055 0.85374,-0.517409 1.97956,-0.77618 3.37654,-0.77618 1.34523,0 2.44427,0.284549 3.29799,0.853695 0.26876,0.17918 0.5032,0.370319 0.7028,0.572575 0.43428,0.440195 0.72372,1.180376 0.81132,2.221053 h 1.12551 3.60805 0.81546 c -0.035,-1.23946 -0.27125,-2.430861 -0.73691,-3.258716 -0.43978,-0.85372 -1.08723,-1.643443 -1.94097,-2.367815 -0.8537,-0.750239 -1.92695,-1.345107 -3.22047,-1.784904 -1.29352,-0.465665 -2.78123,-0.698665 -4.46278,-0.698665 z M 85.159153,42.177792 v 8.240325 c 2.747151,-2.746883 5.495222,-5.492435 8.242392,-8.239291 l -7.310149,-10e-4 z m 132.366097,0 v 4.773869 h 8.1101 v 22.390368 h 2.77089 2.70164 V 46.951661 c 1.93912,-2.42e-4 5.55522,-0.001 5.55522,-0.001 l 2.55488,-2.55385 v -2.218986 z m -76.14523,0.001 c -1.07078,1.0707 -2.14143,2.141515 -3.21221,3.212207 v 23.950996 h 0.062 c 1.77738,-1.776952 3.55465,-3.553919 5.33198,-5.330942 v -17.36945 h 4.81211 c 2.19897,0 3.80317,0.504142 4.81211,1.513086 1.00108,1.001051 1.52764,2.552681 1.58646,4.648812 1.54714,-1.54698 3.09444,-3.093557 4.64158,-4.640544 -0.16312,-0.423772 -0.34892,-0.828564 -0.56224,-1.211296 -0.85372,-1.578096 -2.13419,-2.767829 -3.84163,-3.569808 -1.68157,-0.801983 -3.82908,-1.203027 -6.44198,-1.203027 z m 140.3377,0 -0.008,27.163203 h 5.16041 V 51.724497 c 3.84812,5.872722 11.54452,17.617532 11.54452,17.617532 h 4.67672 V 45.76517 l -2.30994,-3.586344 h -2.85254 l 10e-4,18.005104 c -3.85713,-6.004488 -7.69733,-12.020448 -11.58482,-18.005104 h -3.69693 z m -212.338484,10e-4 c -1.436136,1.436031 -2.87263,2.871731 -4.308782,4.307748 h 5.653403 c 1.603953,0 2.781331,0.401052 3.531567,1.203028 0.75024,0.776112 1.125513,1.810172 1.125513,3.103686 0,1.396998 -0.401052,2.457866 -1.203027,3.182235 -0.801958,0.698496 -1.95358,1.047999 -3.454053,1.047999 h -2.657203 l 2.341976,4.307748 h 0.50953 c 2.017872,0 3.776742,-0.311354 5.277198,-0.932243 1.500473,-0.620888 2.664459,-1.551851 3.492294,-2.793629 0.827859,-1.267642 1.242301,-2.871837 1.242301,-4.81211 0,-1.914401 -0.414442,-3.505192 -1.242301,-4.772835 -0.827835,-1.293516 -1.991821,-2.25026 -3.492294,-2.871143 -1.500456,-0.646759 -3.259326,-0.970362 -5.277198,-0.970484 z m 33.962784,2.036052 c -1.20203,1.201938 -2.40393,2.404056 -3.605977,3.605982 0.645157,0.706277 0.984957,1.6371 0.984957,2.816366 0,1.293512 -0.38868,2.302834 -1.164791,3.027205 -0.776099,0.698494 -1.953481,1.046965 -3.531568,1.046965 h -2.461866 l 2.341976,4.307748 5.607929,10.321852 h 0.71727 c 1.13514,-1.134858 2.27037,-2.269554 3.40547,-3.404444 l -4.56613,-7.731829 c 1.57806,-0.569142 2.83381,-1.487745 3.76515,-2.755388 0.9572,-1.267647 1.4366,-2.858431 1.4366,-4.772835 0,-2.768121 -0.90623,-4.876457 -2.71714,-6.325196 -0.0648,-0.05184 -0.1454,-0.08644 -0.21188,-0.136426 z m 161.6098,2.043286 c 0.20828,-0.0078 0.38961,-0.0056 0.53433,0 0.8725,0.04104 2.68025,0.303193 3.90571,1.698088 0.2176,0.254895 0.41774,0.519665 0.69866,1.010791 0.2248,0.425941 0.38506,0.914447 0.50126,1.459343 0.0964,0.465366 0.13139,0.712657 0.18139,1.255737 0.0266,0.299337 0.0474,0.605966 0.0594,0.932243 0.0252,1.112426 0.0387,2.159891 0.0387,3.142961 0,0.957206 -0.0136,2.005699 -0.0387,3.143995 -0.0802,2.331838 -0.59972,3.961397 -1.5627,4.889624 -1.06008,0.965312 -2.04473,1.224509 -2.67271,1.349789 -0.4902,0.09414 -1.00669,0.13579 -1.56269,0.12299 -0.5174,-0.02238 -0.96155,-0.07082 -1.37253,-0.150896 -1.10961,-0.230378 -2.61649,-0.945445 -3.34553,-2.353345 -0.002,-0.0018 -0.004,-0.0034 -0.004,-0.0052 -5e-4,-10e-4 -5.8e-4,-0.0023 -10e-4,-0.0031 -0.53398,-1.240341 -0.82475,-2.04765 -0.82475,-6.994922 0,-0.983074 0.0141,-2.030536 0.0393,-3.142961 0.0552,-1.581098 0.28412,-2.781556 0.74104,-3.647323 0.5217,-0.912071 1.13619,-1.663502 2.35645,-2.198316 0.83822,-0.374927 1.7037,-0.486314 2.32854,-0.50953 z M 65.058052,46.500009 c -1.823743,1.823568 -3.647724,3.646935 -5.471501,5.470468 v 17.372585 h 5.471501 V 59.332303 55.024555 Z M 132.69941,50.8584 c -1.79173,1.791515 -3.58361,3.582875 -5.37538,5.37435 -0.003,0.836139 -0.011,1.703066 -0.0331,2.669605 -0.0802,2.331838 -0.59971,3.960364 -1.56269,4.888591 -1.06008,0.965312 -2.04473,1.224508 -2.67271,1.349788 -0.4902,0.09414 -1.00669,0.136824 -1.56269,0.124024 -0.51739,-0.02238 -0.96155,-0.07082 -1.37253,-0.150896 -0.38155,-0.07922 -0.80838,-0.23989 -1.2361,-0.44235 -1.21818,1.217856 -2.43636,2.435697 -3.65456,3.653524 1.42707,0.771585 3.48813,1.408968 6.40788,1.400432 2.79217,0.0042 5.89425,-0.571187 8.12974,-2.616895 1.46852,-1.344236 2.29056,-3.018259 2.70474,-4.885491 0.108,-0.54084 0.21092,-1.083205 0.26252,-1.632975 0.081,-0.733477 0.0975,-1.191955 0.10749,-1.495516 0.0252,-1.112426 0.0393,-2.211436 0.0393,-3.29799 0,-1.086554 -0.014,-2.198969 -0.0393,-3.337265 -0.0206,-0.607946 -0.0811,-1.111975 -0.14263,-1.600936 z m -42.146271,6.144329 c -1.797803,1.797485 -3.595098,3.59552 -5.392953,5.392953 v 6.946347 h 5.393987 l -0.001,-10.321852 z m 69.615401,2.385384 c -3.29953,3.298871 -6.59837,6.598402 -9.89811,9.897072 1.90966,-0.12162 3.53664,-0.47105 4.85552,-1.068669 1.68158,-0.776113 2.93625,-1.940071 3.76411,-3.492294 0.75118,-1.431946 1.16622,-3.222574 1.27848,-5.336109 z" />
    <path
       id="path2-0"
       style="display:inline;fill:#af4141;fill-opacity:1;stroke:#000000;stroke-width:0.00529468;stroke-dasharray:none;stroke-opacity:1"
       d="m 98.884366,2.8953376 -0.14366,0.1395264 -0.0124,0.01344 c -2.133881,2.1338917 -4.267779,4.2678054 -6.401672,6.4016931 h 5.196579 c 0.280998,0.4852813 0.561409,0.9709189 0.842325,1.4562459 2.670252,-2.6703252 5.340522,-5.3406943 8.010882,-8.0109014 z m 35.999844,0 -0.14366,0.1395264 -0.0124,0.01344 c -2.47466,2.4746286 -4.94919,4.9492332 -7.42383,7.423856 1.71931,-0.8771225 3.65016,-1.3776759 5.54694,-1.408704 1.05553,-0.05296 2.13149,0.00658 3.19257,0.1643325 2.11078,-2.1108197 4.22158,-4.2217053 6.33244,-6.3324469 z m 35.99986,0 -0.14264,0.1395264 -0.0144,0.01344 -6.65386,6.6538757 c 0.005,7.86e-4 0.01,0.00128 0.0144,0.00206 1.91614,0.1887045 3.76686,1.0046803 5.22862,2.2510323 3.01989,-3.0200223 6.03987,-6.0400624 9.05991,-9.0599364 z m 35.99983,0 -0.1426,0.1395264 -0.014,0.01344 -6.40168,6.4016931 h 7.49619 c 2.18484,-2.1848899 4.3697,-4.3698457 6.55462,-6.5546555 z M 90.698824,11.077805 c -1.328085,1.328082 -2.65616,2.656186 -3.98425,3.984265 v 7.49517 c 1.32802,-1.328151 2.656219,-2.656125 3.98425,-3.984263 z m 107.722546,0.275953 -9.7968,9.796847 v 7.496204 c 3.26536,-3.265797 6.53138,-6.531104 9.7968,-9.796845 z m -75.81134,3.812698 c -1.46245,1.462448 -2.92487,2.924894 -4.38732,4.387342 v 7.49517 c 1.04863,-1.048746 2.09742,-2.097327 3.14606,-3.146068 -0.0508,-2.484731 0.0176,-4.961 0.71727,-7.358746 0.12944,-0.484735 0.32067,-0.935704 0.52399,-1.377698 z m 37.73618,0.654226 c -0.81922,-5.34e-4 -1.64496,0.04624 -2.4598,0.06822 l -1.24539,1.245406 c 0.002,2.497394 0.004,4.994675 0.004,7.492072 0.3476,-0.347629 0.69523,-0.695206 1.04283,-1.042835 -0.28934,-0.532649 -0.57887,-1.065173 -0.86815,-1.597838 0.82147,-0.02356 1.64407,-0.0078 2.46599,0 1.62356,-1.623754 3.24742,-3.247301 4.87102,-4.871037 -0.10066,-0.142641 -0.18446,-0.296087 -0.31524,-0.41858 -1.04874,-0.716127 -2.25468,-0.874592 -3.49538,-0.8754 z m -81.25287,6.862651 c -2.131497,2.13147 -4.262937,4.262991 -6.394438,6.394457 0.801336,1.370498 1.601867,2.741555 2.406053,4.110355 0.1637,0.17724 0.299888,0.364743 0.420645,0.558107 1.189184,-1.189317 2.378557,-2.378432 3.56774,-3.567751 z m 70.04528,1.953373 -3.2618,3.261825 c -0.1591,3.26427 -1.18966,6.548525 -3.76721,8.680631 -2.14428,1.592636 -4.75666,2.362008 -7.41866,2.505281 L 97.824999,75.950507 h 7.496181 c 14.60872,-14.603731 29.21335,-29.2116 43.81848,-43.818631 -4e-4,-2.498369 -7e-4,-4.996801 -0.001,-7.49517 z m -38.18575,2.186954 c -1.62885,1.628842 -3.25767,3.257693 -4.88652,4.886535 -0.535,0.922648 -1.07025,1.845043 -1.60507,2.767797 -0.1422,-0.245338 -0.28463,-0.490545 -0.42684,-0.735874 -14.069482,14.069434 -28.1388,28.138889 -42.208252,42.208389 h 7.495145 C 83.200653,62.075612 97.076407,48.196827 110.95287,34.318828 Z m 70.09593,1.902731 -8.6589,8.658925 c -0.009,0.452075 -0.0285,0.903034 -0.0351,1.338424 h -1.30327 l -37.22664,37.226767 h 7.49618 c 13.24629,-13.241768 26.48882,-26.487323 39.73191,-39.732048 -0.004,-2.497461 1.4e-4,-4.994627 -0.004,-7.492068 z M 67.394836,34.381874 C 53.538346,48.238129 39.681584,62.094186 25.82531,75.950507 h 7.496179 C 45.732284,63.54367 58.139833,51.133287 70.54813,38.72374 h -0.794783 c -0.786208,-1.447326 -1.572169,-2.894612 -2.358511,-4.341866 z" />
  </g>
</svg>
